<svg width="20" height="20" viewBox="0 0 20 20" fill="none" xmlns="http://www.w3.org/2000/svg">
<mask id="mask0_3090_289524" style="mask-type:alpha" maskUnits="userSpaceOnUse" x="0" y="0" width="20" height="20">
<rect width="20" height="20" fill="#D9D9D9"/>
</mask>
<g mask="url(#mask0_3090_289524)">
<path d="M12.5421 12.5373C13.2371 11.8393 13.5846 10.9923 13.5846 9.99651C13.5846 9.00082 13.2355 8.15547 12.5373 7.46047C11.8393 6.76547 10.9923 6.41797 9.99651 6.41797C9.00082 6.41797 8.15547 6.76707 7.46047 7.46526C6.76547 8.16332 6.41797 9.01026 6.41797 10.0061C6.41797 11.0018 6.76707 11.8471 7.46526 12.5421C8.16332 13.2371 9.01026 13.5846 10.0061 13.5846C11.0018 13.5846 11.8471 13.2355 12.5421 12.5373ZM10.0084 17.5846C8.96519 17.5846 7.98269 17.3873 7.06089 16.9926C6.13908 16.5978 5.33227 16.0547 4.64047 15.3632C3.94866 14.6716 3.40526 13.8655 3.01026 12.9446C2.6154 12.0239 2.41797 11.0401 2.41797 9.99318C2.41797 8.94623 2.61533 7.96533 3.01005 7.05047C3.40477 6.13561 3.9479 5.33227 4.63943 4.64047C5.33095 3.94866 6.13714 3.40526 7.05797 3.01026C7.97866 2.6154 8.96248 2.41797 10.0094 2.41797C11.0564 2.41797 12.0373 2.61533 12.9521 3.01005C13.867 3.40477 14.6703 3.9479 15.3621 4.63943C16.0539 5.33095 16.5973 6.13547 16.9923 7.05297C17.3872 7.97061 17.5846 8.95102 17.5846 9.99422C17.5846 11.0374 17.3873 12.0199 16.9926 12.9417C16.5978 13.8635 16.0547 14.6703 15.3632 15.3621C14.6716 16.0539 13.8671 16.5973 12.9496 16.9923C12.032 17.3872 11.0516 17.5846 10.0084 17.5846ZM10.0013 16.5013C11.8069 16.5013 13.3416 15.8694 14.6055 14.6055C15.8694 13.3416 16.5013 11.8069 16.5013 10.0013C16.5013 8.19575 15.8694 6.66102 14.6055 5.39714C13.3416 4.13325 11.8069 3.5013 10.0013 3.5013C8.19575 3.5013 6.66102 4.13325 5.39714 5.39714C4.13325 6.66102 3.5013 8.19575 3.5013 10.0013C3.5013 11.8069 4.13325 13.3416 5.39714 14.6055C6.66102 15.8694 8.19575 16.5013 10.0013 16.5013Z" fill="#303030"/>
</g>
</svg>
