<svg width="20" height="20" viewBox="0 0 20 20" fill="none" xmlns="http://www.w3.org/2000/svg">
<mask id="mask0_3090_files" style="mask-type:alpha" maskUnits="userSpaceOnUse" x="0" y="0" width="20" height="20">
<rect width="20" height="20" fill="#D9D9D9"/>
</mask>
<g mask="url(#mask0_3090_files)">
<path fill-rule="evenodd" clip-rule="evenodd" d="M6.5 3.5C5.67157 3.5 5 4.17157 5 5V15C5 15.8284 5.67157 16.5 6.5 16.5H13.5C14.3284 16.5 15 15.8284 15 15V8L10.5 3.5H6.5ZM6.5 4.5H9.75V8.25H14V15C14 15.2761 13.7761 15.5 13.5 15.5H6.5C6.22386 15.5 6 15.2761 6 15V5C6 4.72386 6.22386 4.5 6.5 4.5ZM10.75 4.71L13.79 7.25H10.75V4.71Z" fill="#303030"/>
<path d="M7.5 10H12.5" stroke="#303030" stroke-width="0.9" stroke-linecap="round"/>
<path d="M7.5 12.2H12.5" stroke="#303030" stroke-width="0.9" stroke-linecap="round"/>
</g>
</svg>
