<svg width="20" height="20" viewBox="0 0 20 20" fill="none" xmlns="http://www.w3.org/2000/svg">
<mask id="mask0_917_204479" style="mask-type:alpha" maskUnits="userSpaceOnUse" x="0" y="0" width="20" height="20">
<rect width="20" height="20" fill="#D9D9D9"/>
</mask>
<g mask="url(#mask0_917_204479)">
<path d="M9.99837 16.1574C11.587 14.7674 12.8242 13.4127 13.7099 12.0933C14.5956 10.7738 15.0384 9.61035 15.0384 8.60287C15.0384 7.1392 14.5627 5.92152 13.6114 4.94983C12.66 3.97813 11.4556 3.49228 9.99837 3.49228C8.54111 3.49228 7.33678 3.97813 6.3854 4.94983C5.43401 5.92152 4.95831 7.1392 4.95831 8.60287C4.95831 9.61035 5.40115 10.7738 6.28683 12.0933C7.17253 13.4127 8.40971 14.7674 9.99837 16.1574ZM9.99837 17.2006C9.84987 17.2006 9.71179 17.176 9.58413 17.1269C9.45646 17.0777 9.32692 17.0013 9.1955 16.8977C8.79488 16.5558 8.29301 16.0892 7.68992 15.4979C7.08682 14.9066 6.49948 14.2426 5.9279 13.5059C5.35631 12.7693 4.87127 11.98 4.47277 11.1381C4.07426 10.2962 3.875 9.45116 3.875 8.60287C3.875 6.90203 4.44498 5.44585 5.58494 4.23431C6.72488 3.02276 8.19603 2.41699 9.99837 2.41699C11.7868 2.41699 13.2545 3.02276 14.4014 4.23431C15.5483 5.44585 16.1217 6.90203 16.1217 8.60287C16.1217 9.45116 15.919 10.2984 15.5136 11.1446C15.1081 11.9907 14.6244 12.7834 14.0624 13.5228C13.5005 14.2621 12.918 14.9226 12.3149 15.5043C11.7118 16.086 11.2099 16.5478 10.8092 16.8897C10.6798 16.9933 10.55 17.0711 10.4199 17.1229C10.2898 17.1747 10.1493 17.2006 9.99837 17.2006ZM9.99979 9.88812C10.3728 9.88812 10.6891 9.75784 10.9487 9.49728C11.2083 9.23673 11.3381 8.91996 11.3381 8.54697C11.3381 8.17399 11.2078 7.85769 10.9473 7.59808C10.6867 7.33846 10.3699 7.20866 9.99696 7.20866C9.62397 7.20866 9.30767 7.33894 9.04806 7.59949C8.78845 7.86005 8.65865 8.17682 8.65865 8.5498C8.65865 8.92279 8.78892 9.23909 9.04948 9.4987C9.31004 9.75831 9.62681 9.88812 9.99979 9.88812Z" fill="#303030"/>
</g>
</svg>
