<svg preserveAspectRatio="none" width="100%" height="100%" overflow="visible" style="display: block;" viewBox="0 0 9.01782 5.0176" fill="none" xmlns="http://www.w3.org/2000/svg">
<path id="expand_more" d="M4.49764 5.0176C4.40832 5.0176 4.32525 5.00158 4.24845 4.96952C4.17163 4.93747 4.10117 4.88939 4.03707 4.82529L0.173929 0.962146C0.0538453 0.842076 -0.00405706 0.712062 0.000220722 0.572104C0.00448461 0.432146 0.0669846 0.301805 0.187721 0.181082C0.308443 0.0603602 0.437443 0 0.574721 0C0.711998 0 0.840998 0.0603602 0.96172 0.181082L4.5018 3.742L8.06272 0.181082C8.1781 0.0657074 8.30576 0.0101519 8.44572 0.0144157C8.58567 0.0186935 8.716 0.0811935 8.83672 0.201916C8.95746 0.322638 9.01782 0.451645 9.01782 0.588937C9.01782 0.726215 8.95511 0.857173 8.82968 0.981812L4.96653 4.82529C4.89688 4.88939 4.82364 4.93747 4.74682 4.96952C4.67002 5.00158 4.58696 5.0176 4.49764 5.0176Z" fill="var(--fill-0, #A3A3A3)"/>
</svg>
