<svg preserveAspectRatio="none" width="100%" height="100%" overflow="visible" style="display: block;" viewBox="0 0 13.1666 8.391" fill="none" xmlns="http://www.w3.org/2000/svg">
<path id="menu" d="M0.541667 8.391C0.388194 8.391 0.259548 8.33948 0.155729 8.23644C0.0519095 8.13341 0 8.00574 0 7.85344C0 7.70113 0.0519095 7.5721 0.155729 7.46633C0.259548 7.36057 0.388194 7.30769 0.541667 7.30769H12.625C12.7784 7.30769 12.9071 7.3592 13.0109 7.46223C13.1147 7.56526 13.1666 7.69292 13.1666 7.84523C13.1666 7.99753 13.1147 8.12657 13.0109 8.23233C12.9071 8.33811 12.7784 8.391 12.625 8.391H0.541667ZM0.541667 4.73715C0.388194 4.73715 0.259548 4.68563 0.155729 4.5826C0.0519095 4.47958 0 4.35191 0 4.1996C0 4.0473 0.0519095 3.91826 0.155729 3.8125C0.259548 3.70674 0.388194 3.65385 0.541667 3.65385H12.625C12.7784 3.65385 12.9071 3.70537 13.0109 3.8084C13.1147 3.91142 13.1666 4.03909 13.1666 4.1914C13.1666 4.3437 13.1147 4.47274 13.0109 4.5785C12.9071 4.68426 12.7784 4.73715 12.625 4.73715H0.541667ZM0.541667 1.08331C0.388194 1.08331 0.259548 1.0318 0.155729 0.928771C0.0519095 0.825743 0 0.698076 0 0.54577C0 0.393464 0.0519095 0.26443 0.155729 0.158666C0.259548 0.0528882 0.388194 0 0.541667 0H12.625C12.7784 0 12.9071 0.0515197 13.0109 0.154561C13.1147 0.257589 13.1666 0.385257 13.1666 0.537562C13.1666 0.689868 13.1147 0.818902 13.0109 0.924666C12.9071 1.03043 12.7784 1.08331 12.625 1.08331H0.541667Z" fill="var(--fill-0, #303030)"/>
</svg>
